<svg id="剪贴-new" xmlns="http://www.w3.org/2000/svg" width="800" height="800" viewBox="0 0 800 800">
<defs>
    <style>
      .cls-1 {
        fill: none;
        stroke-width: 40px;
      }

      .cls-1, .cls-2 {
        stroke: #434343;
        stroke-linecap: round;
        stroke-linejoin: round;
        fill-rule: evenodd;
      }

      .cls-2 {
        fill: #434343;
        stroke-width: 20px;
      }
    </style>
  </defs>
  <path id="椭圆_29" data-name="椭圆 29" class="cls-1" d="M187.455,498.053c73.532,0,133.142,59.464,133.142,132.817s-59.61,132.817-133.142,132.817S54.312,704.222,54.312,630.87,113.922,498.053,187.455,498.053Z"/>
  <path id="形状_14_" data-name="形状 14 " class="cls-2" d="M208,500s64.189-45.925,111-105c52.766-66.59,87.674-130.956,87.674-130.956L608.505,31.129,298,545Z"/>
  <path id="椭圆_29_" data-name="椭圆 29 " class="cls-1" d="M616.909,498.211c73.507,0,133.1,59.5,133.1,132.889s-59.59,132.889-133.1,132.889-133.1-59.5-133.1-132.889S543.4,498.211,616.909,498.211Z"/>
  <path id="形状_14" data-name="形状 14" class="cls-2" d="M596.368,500.15S532.2,454.2,485.4,395.09c-52.749-66.629-87.646-131.032-87.646-131.032L195.992,31.01,506.4,545.176Z"/>
</svg>
