<svg id="手动模式-new" xmlns="http://www.w3.org/2000/svg" width="800" height="800" viewBox="0 0 800 800">
<defs>
    <style>
      .cls-1 {
        fill: none;
        stroke: #434343;
        stroke-linecap: round;
        stroke-linejoin: round;
        stroke-width: 40px;
        fill-rule: evenodd;
      }
    </style>
  </defs>
  <path id="圆角矩形_562" data-name="圆角矩形 562" class="cls-1" d="M439.619,293.856L306.6,165.849c-13.231-12.733-37.114-16.286-53.944-8.156L82.642,239.818S17.889,273.6,36,312c24.09,51.081,88,8,88,8l111-52s28.93-10.249,51,6c24.893,18.327,27,44,27,44s14.971,92.732-19,101c-35.843,8.724-128.687,10.18-174,45-32.909,25.289-22,81-22,81l442,2s52.233-4.375,88,18c64.666,40.453,131,119,131,119"/>
  <path id="圆角矩形_562-2" data-name="圆角矩形 562" class="cls-1" d="M323.122,172.958l29.533-14.265c16.83-8.13,40.713-4.577,53.944,8.156l95.678,92.073"/>
  <path id="圆角矩形_562-3" data-name="圆角矩形 562" class="cls-1" d="M418.066,172.952l31.589-15.259c16.83-8.13,40.713-4.577,53.944,8.156L583.247,242.5"/>
  <path id="圆角矩形_562-4" data-name="圆角矩形 562" class="cls-1" d="M516.653,174.219l28-13.526c16.83-8.13,40.713-4.577,53.944,8.156,0,0,125.544,122.721,163.4,159.151"/>
</svg>
