<svg id="自动模式-new" xmlns="http://www.w3.org/2000/svg" width="800" height="800" viewBox="0 0 800 800">
<defs>
    <style>
      .cls-1 {
        fill: none;
        stroke: #434343;
        stroke-linecap: round;
        stroke-linejoin: round;
        stroke-width: 40px;
        fill-rule: evenodd;
      }
    </style>
  </defs>
  <path id="椭圆_567" data-name="椭圆 567" class="cls-1" d="M624.434,630.283A263.346,263.346,0,0,1,403.5,750.07c-145.566,0-263.57-118-263.57-263.57s118-263.57,263.57-263.57"/>
  <path id="椭圆_565" data-name="椭圆 565" class="cls-1" d="M395,222.723c80.219,0,145.25,67.729,145.25,151.277S475.219,525.277,395,525.277,249.75,457.548,249.75,374,314.781,222.723,395,222.723Z"/>
  <path id="椭圆_565-2" data-name="椭圆 565" class="cls-1" d="M65.64,430.353a273.51,273.51,0,0,1-24-112.577C41.64,171.344,155.521,52.638,296,52.638S550.36,171.344,550.36,317.776a275.344,275.344,0,0,1-11.86,80.255"/>
  <path id="椭圆_566" data-name="椭圆 566" class="cls-1" d="M499,58.621C641.7,58.621,757.379,174.3,757.379,317S641.7,575.379,499,575.379a257.464,257.464,0,0,1-175.624-68.863"/>
</svg>
