<svg id="复制-new" xmlns="http://www.w3.org/2000/svg" width="800" height="800" viewBox="0 0 800 800">
<defs>
    <style>
      .cls-1, .cls-2 {
        fill: none;
        stroke: #434343;
        stroke-linecap: round;
        stroke-linejoin: round;
        fill-rule: evenodd;
      }

      .cls-1 {
        stroke-width: 30px;
      }

      .cls-2 {
        stroke-width: 40px;
      }
    </style>
  </defs>
  <path id="矩形_32" data-name="矩形 32" class="cls-1" d="M728.129,146.047V593.165a31.952,31.952,0,0,1-31.938,31.966H254.819a31.952,31.952,0,0,1-31.938-31.966V67.85a31.953,31.953,0,0,1,31.938-31.967H536.687"/>
  <path id="矩形_20_" data-name="矩形 20 " class="cls-2" d="M615.729,294.575H329.738m285.032,105H330.236M615.729,504.292H331.194"/>
  <path id="矩形_32-2" data-name="矩形 32" class="cls-1" d="M545.57,37.076c22.826,58.828,43.4,117.263,43.4,117.263A31.93,31.93,0,0,0,630.3,172.565s50.18-17.245,95.787-34.972C729.205,136.382,544.205,33.559,545.57,37.076Z"/>
  <path id="矩形_35" data-name="矩形 35" class="cls-1" d="M623.358,639.389v99.877a20.07,20.07,0,0,1-20.064,20.075H100.685a20.07,20.07,0,0,1-20.064-20.075V142.729a20.069,20.069,0,0,1,20.064-20.074H200.734"/>
</svg>
