<svg id="工程设置" xmlns="http://www.w3.org/2000/svg" width="800" height="800" viewBox="0 0 800 800">
<defs>
    <style>
      .cls-1 {
        fill: none;
      }

      .cls-1, .cls-2 {
        stroke: #434343;
        stroke-linecap: round;
        stroke-linejoin: round;
        stroke-width: 40px;
        fill-rule: evenodd;
      }

      .cls-2 {
        fill: #434343;
      }
    </style>
  </defs>
  <path id="圆角矩形_24_拷贝" data-name="圆角矩形 24 拷贝" class="cls-1" d="M463.266,494.136H697.289a40,40,0,0,1,40,40V711a40,40,0,0,1-40,40H463.266a40,40,0,0,1-40-40V534.136A40,40,0,0,1,463.266,494.136Z"/>
  <path id="圆角矩形_24_拷贝_2" data-name="圆角矩形 24 拷贝 2" class="cls-1" d="M737.289,387.532a40,40,0,0,1-40,40H604.451M423.266,215.469V92.889a40,40,0,0,1,40-40H697.289a40,40,0,0,1,40,40v11.266"/>
  <path id="圆角矩形_24_拷贝_3" data-name="圆角矩形 24 拷贝 3" class="cls-1" d="M80.46,53H318.048a40,40,0,0,1,40,40V293.531a40,40,0,0,1-40,40H80.46a40,40,0,0,1-40-40V93A40,40,0,0,1,80.46,53Z"/>
  <path id="圆角矩形_24_拷贝_3-2" data-name="圆角矩形 24 拷贝 3" class="cls-1" d="M82.46,400.719H318.267a40,40,0,0,1,40,40V711.125a40,40,0,0,1-40,40H82.46a40,40,0,0,1-40-40V440.719A40,40,0,0,1,82.46,400.719Z"/>
  <path id="形状_4_拷贝_2" data-name="形状 4 拷贝 2" class="cls-2" d="M536.974,421.59S479.56,344.1,530.542,289.038c33.84-36.551,140.594-38.661,140.594-38.661L650,359.916,767.622,185.942,580.163,111.381l77.189,71.8s-96.2-6.418-149.783,44.184C420.743,309.355,537.008,420.941,536.974,421.59Z"/>
</svg>
