<svg id="变量" xmlns="http://www.w3.org/2000/svg" width="800" height="800" viewBox="0 0 800 800">
<defs>
    <style>
      .cls-1 {
        fill: none;
        stroke: #434343;
        stroke-linecap: round;
        stroke-linejoin: round;
        stroke-width: 40px;
        fill-rule: evenodd;
      }
    </style>
  </defs>
  <path id="圆角矩形_20_拷贝_3" data-name="圆角矩形 20 拷贝 3" class="cls-1" d="M759.017,195.3A46.238,46.238,0,0,0,712.734,149.1s-212.011,1.155-354.367,1.155c-16.941,0,2.916-76.217-12.728-76.217-87.337,0-190.917,1.155-190.917,1.155l-27.77,79.681s-88.6,13.669-87.937,65.823c1.627,128.868,2.01,458.37,2.01,458.37,0,25.511,39.235,46.192,64.8,46.192H673c21.262,0,86.653.833,85.324-47.007C758.324,440.787,759.017,195.3,759.017,195.3Z"/>
  <path id="矩形_17_拷贝_4" data-name="矩形 17 拷贝 4" class="cls-1" d="M172.335,360.582h273.2m110.943,0H629.5M500.563,306.518a53.7,53.7,0,1,1-53.968,53.7A53.832,53.832,0,0,1,500.563,306.518Z"/>
  <path id="椭圆_27_拷贝" data-name="椭圆 27 拷贝" class="cls-1" d="M170.487,512.63H225.31m109.8,0H628.244M280.412,458.973a53.271,53.271,0,1,1-52.916,53.27A53.095,53.095,0,0,1,280.412,458.973Z"/>
</svg>
