<svg id="IO" xmlns="http://www.w3.org/2000/svg" width="800" height="800" viewBox="0 0 800 800">
<defs>
    <style>
      .cls-1 {
        fill: none;
        stroke-width: 30px;
      }

      .cls-1, .cls-2 {
        stroke: #434343;
        stroke-linecap: round;
        stroke-linejoin: round;
        fill-rule: evenodd;
      }

      .cls-2 {
        fill: #434343;
        stroke-width: 20px;
      }
    </style>
  </defs>
  <path id="圆角矩形_14" data-name="圆角矩形 14" class="cls-1" d="M684.466,673.135a88.948,88.948,0,0,1-88.957,88.939H120.882a88.949,88.949,0,0,1-88.957-88.939V125.865a88.948,88.948,0,0,1,88.957-88.939H595.509a88.948,88.948,0,0,1,88.957,88.939v92.463"/>
  <path id="形状_2" data-name="形状 2" class="cls-1" d="M484,512.246H339.055v97.743L205,468.489l134.06-141.5v102.07H484"/>
  <path id="形状_2_拷贝" data-name="形状 2 拷贝" class="cls-1" d="M493.568,511.459h145.2v97.593l134.3-141.282-134.3-141.284V428.4h-145.2"/>
  <path id="椭圆_17" data-name="椭圆 17" class="cls-2" d="M118.611,106.086A28.648,28.648,0,1,1,89.9,134.734,28.677,28.677,0,0,1,118.611,106.086Z"/>
  <path id="椭圆_17-2" data-name="椭圆 17" class="cls-1" d="M309.058,110.586a24.7,24.7,0,1,1-24.808,24.7A24.756,24.756,0,0,1,309.058,110.586Zm101.172,0a24.7,24.7,0,1,1-24.786,24.7A24.745,24.745,0,0,1,410.23,110.586Zm100.284,0a24.7,24.7,0,1,1-24.855,24.7A24.78,24.78,0,0,1,510.514,110.586Zm96.037,0a24.7,24.7,0,1,1-24.832,24.7A24.768,24.768,0,0,1,606.551,110.586Z"/>
</svg>
