<svg id="已注释" xmlns="http://www.w3.org/2000/svg" width="800" height="800" viewBox="0 0 800 800">
<defs>
    <style>
      .cls-1, .cls-2 {
        fill: none;
      }

      .cls-1, .cls-2, .cls-3 {
        stroke: #434343;
        stroke-linecap: round;
        stroke-linejoin: round;
        stroke-width: 40px;
        fill-rule: evenodd;
      }

      .cls-1 {
        stroke-dasharray: 80 80;
      }

      .cls-3 {
        fill: #434343;
      }
    </style>
  </defs>
  <path id="矩形_16" data-name="矩形 16" class="cls-1" d="M523.984,748H189a30,30,0,0,1-30-30V378m0-225V86a30,30,0,0,1,30-30H708a30,30,0,0,1,30,30V540.094"/>
  <path id="矩形_16_拷贝" data-name="矩形 16 拷贝" class="cls-2" d="M522.029,748.016V578.9a29.991,29.991,0,0,1,30.044-29.938h185.9Z"/>
  <path id="矩形_16_拷贝_2" data-name="矩形 16 拷贝 2" class="cls-1" d="M524.984,748H190a30,30,0,0,1-30-30V378m0-225V86a30,30,0,0,1,30-30H709a30,30,0,0,1,30,30V540.094"/>
  <path id="矩形_16_拷贝_2-2" data-name="矩形 16 拷贝 2" class="cls-2" d="M523.029,748.016V578.9a29.991,29.991,0,0,1,30.044-29.938h185.9Z"/>
  <path id="矩形_16_拷贝_3" data-name="矩形 16 拷贝 3" class="cls-1" d="M525.984,748H191a30,30,0,0,1-30-30V378m0-225V86a30,30,0,0,1,30-30H710a30,30,0,0,1,30,30V540.094"/>
  <path id="矩形_16_拷贝_3-2" data-name="矩形 16 拷贝 3" class="cls-2" d="M524.029,748.016V578.9a29.991,29.991,0,0,1,30.044-29.938h185.9Z"/>
  <path id="矩形_16_拷贝_4" data-name="矩形 16 拷贝 4" class="cls-1" d="M526.984,748H192a30,30,0,0,1-30-30V378m0-225V86a30,30,0,0,1,30-30H711a30,30,0,0,1,30,30V540.094"/>
  <path id="矩形_16_拷贝_4-2" data-name="矩形 16 拷贝 4" class="cls-2" d="M525.029,748.016V578.9a29.991,29.991,0,0,1,30.044-29.938h185.9Z"/>
  <path id="矩形_16_拷贝_5" data-name="矩形 16 拷贝 5" class="cls-1" d="M527.984,748H193a30,30,0,0,1-30-30V378m0-225V86a30,30,0,0,1,30-30H712a30,30,0,0,1,30,30V540.094"/>
  <path id="矩形_16_拷贝_5-2" data-name="矩形 16 拷贝 5" class="cls-2" d="M526.029,748.016V578.9a29.991,29.991,0,0,1,30.044-29.938h185.9Z"/>
  <path id="矩形_16_拷贝_6" data-name="矩形 16 拷贝 6" class="cls-1" d="M528.984,748H194a30,30,0,0,1-30-30V378m0-225V86a30,30,0,0,1,30-30H713a30,30,0,0,1,30,30V540.094"/>
  <path id="矩形_16_拷贝_6-2" data-name="矩形 16 拷贝 6" class="cls-2" d="M527.029,748.016V578.9a29.991,29.991,0,0,1,30.044-29.938h185.9Z"/>
  <path id="矩形_16_拷贝_7" data-name="矩形 16 拷贝 7" class="cls-1" d="M529.984,748H195a30,30,0,0,1-30-30V378m0-225V86a30,30,0,0,1,30-30H714a30,30,0,0,1,30,30V540.094"/>
  <path id="矩形_16_拷贝_7-2" data-name="矩形 16 拷贝 7" class="cls-2" d="M528.029,748.016V578.9a29.991,29.991,0,0,1,30.044-29.938h185.9Z"/>
  <path id="矩形_16_拷贝_8" data-name="矩形 16 拷贝 8" class="cls-1" d="M530.984,748H196a30,30,0,0,1-30-30V378m0-225V86a30,30,0,0,1,30-30H715a30,30,0,0,1,30,30V540.094"/>
  <path id="矩形_16_拷贝_8-2" data-name="矩形 16 拷贝 8" class="cls-2" d="M529.029,748.016V578.9a29.991,29.991,0,0,1,30.044-29.938h185.9Z"/>
  <path id="矩形_16_拷贝_9" data-name="矩形 16 拷贝 9" class="cls-1" d="M531.984,748H197a30,30,0,0,1-30-30V378m0-225V86a30,30,0,0,1,30-30H716a30,30,0,0,1,30,30V540.094"/>
  <path id="矩形_16_拷贝_9-2" data-name="矩形 16 拷贝 9" class="cls-2" d="M530.029,748.016V578.9a29.991,29.991,0,0,1,30.044-29.938h185.9Z"/>
  <path id="矩形_16_拷贝_10" data-name="矩形 16 拷贝 10" class="cls-1" d="M530.984,748H196a30,30,0,0,1-30-30V378m0-225V86a30,30,0,0,1,30-30H715a30,30,0,0,1,30,30V540.094"/>
  <path id="矩形_16_拷贝_10-2" data-name="矩形 16 拷贝 10" class="cls-2" d="M529.029,748.016V578.9a29.991,29.991,0,0,1,30.044-29.938h185.9Z"/>
  <path id="椭圆_11" data-name="椭圆 11" class="cls-3" d="M191,157.965A145.035,145.035,0,1,1,45.965,303,145.035,145.035,0,0,1,191,157.965Zm-71.711,101.14H264.942a40,40,0,0,1,40,40v8.888a40,40,0,0,1-40,40H119.289a40,40,0,0,1-40-40v-8.888A40,40,0,0,1,119.289,259.105Z"/>
</svg>
