<svg id="寄存器" xmlns="http://www.w3.org/2000/svg" width="800" height="800" viewBox="0 0 800 800">
<defs>
    <style>
      .cls-1 {
        fill: none;
        stroke: #333;
        stroke-linecap: round;
        stroke-linejoin: round;
        stroke-width: 30px;
        fill-rule: evenodd;
      }
    </style>
  </defs>
  <path id="矩形_65" data-name="矩形 65" class="cls-1" d="M72,41H726a30,30,0,0,1,30,30V721a30,30,0,0,1-30,30H72a30,30,0,0,1-30-30V71A30,30,0,0,1,72,41Z"/>
  <path id="形状_42" data-name="形状 42" class="cls-1" d="M48,266H749"/>
  <path id="形状_43" data-name="形状 43" class="cls-1" d="M46,517H749"/>
  <path id="椭圆_52" data-name="椭圆 52" class="cls-1" d="M467.76,126.375h17.312v65H467.76v-65Zm86.531,0H571.6v65H554.291v-65Zm84.969,0h17.312v65H639.26v-65Zm-476.237-2.4A34.212,34.212,0,1,1,128.8,158.189,34.217,34.217,0,0,1,163.023,123.977Z"/>
  <path id="椭圆_52_" data-name="椭圆 52 " class="cls-1" d="M468.26,364.25h17.312v65.031H468.26V364.25Zm86.562,0H572.1v65.031H554.822V364.25Zm84.969,0h17.281v65.031H639.791V364.25ZM163.53,361.878a34.212,34.212,0,1,1-34.222,34.212A34.217,34.217,0,0,1,163.53,361.878Z"/>
  <path id="椭圆_52_2" data-name="椭圆 52 " class="cls-1" d="M468.478,606.156h17.313v65H468.478v-65Zm86.532,0h17.312v65H555.01v-65Zm84.968,0h17.313v65H639.978v-65Zm-476.235-2.377a34.212,34.212,0,1,1-34.222,34.212A34.217,34.217,0,0,1,163.743,603.779Z"/>
</svg>
