<svg id="保存工程" xmlns="http://www.w3.org/2000/svg" width="800" height="800" viewBox="0 0 800 800">
<defs>
    <style>
      .cls-1, .cls-2 {
        fill: none;
        stroke: #434343;
        stroke-linecap: round;
        stroke-linejoin: round;
        fill-rule: evenodd;
      }

      .cls-1 {
        stroke-width: 40px;
      }

      .cls-2 {
        stroke-width: 60px;
      }
    </style>
  </defs>
  <path id="矩形_7" data-name="矩形 7" class="cls-1" d="M41.17,326.01V698.467a40.347,40.347,0,0,0,40.356,40.338H717.482a40.347,40.347,0,0,0,40.356-40.338V108.532A40.347,40.347,0,0,0,717.482,68.2H232.674C145.241,68.2,41.17,208.431,41.17,326.01Z"/>
  <path id="圆角矩形_22" data-name="圆角矩形 22" class="cls-1" d="M609.1,68.426v252.28A39.6,39.6,0,0,1,569.49,360.3H254.621a39.6,39.6,0,0,1-39.606-39.595V77.21"/>
  <path id="圆角矩形_22_拷贝_2" data-name="圆角矩形 22 拷贝 2" class="cls-2" d="M546.544,206.64v93.9"/>
  <path id="圆角矩形_22_拷贝" data-name="圆角矩形 22 拷贝" class="cls-1" d="M618.251,735.947v-44.2A39.645,39.645,0,0,0,578.608,652.1H263.442A39.645,39.645,0,0,0,223.8,691.746v35.406"/>
</svg>
