<svg id="新建工程" xmlns="http://www.w3.org/2000/svg" width="800" height="800" viewBox="0 0 800 800">
<defs>
    <style>
      .cls-1 {
        fill: none;
        stroke-width: 40px;
      }

      .cls-1, .cls-2 {
        stroke: #434343;
        stroke-linecap: round;
        stroke-linejoin: round;
        fill-rule: evenodd;
      }

      .cls-2 {
        fill: #434343;
        stroke-width: 10px;
      }
    </style>
  </defs>
  <path id="圆角矩形_20" data-name="圆角矩形 20" class="cls-1" d="M86.853,549c-22.091,0-56-17.909-56-40,0,0-.331-228.512-1.737-340.1-0.569-45.163,76-57,76-57l24-69s89.519-1,165-1c13.52,0-3.641,66,11,66,123.032,0,340.083-1,340.083-1a40,40,0,0,1,40,40v17.273"/>
  <path id="圆角矩形_20_拷贝" data-name="圆角矩形 20 拷贝" class="cls-1" d="M252.152,673H125.866a40,40,0,0,1-40-40V205.9a40,40,0,0,1,40-40H726.187a40,40,0,0,1,40,40v98.058"/>
  <path id="椭圆_3_拷贝_2" data-name="椭圆 3 拷贝 2" class="cls-2" d="M526,271.187c138.52,0,250.812,112.293,250.812,250.813S664.52,772.812,526,772.812,275.187,660.52,275.187,522,387.48,271.187,526,271.187ZM663.068,500.358a17.863,17.863,0,0,1,17.863,17.863v21.986a17.863,17.863,0,0,1-17.863,17.863h-107.6L555.2,665.251a17.864,17.864,0,0,1-17.864,17.864H515.35a17.864,17.864,0,0,1-17.863-17.864V558.616l-107.181-.546a17.862,17.862,0,0,1-17.863-17.863V518.221a17.862,17.862,0,0,1,17.863-17.863H498.279L497.487,392.49a17.864,17.864,0,0,1,17.863-17.864h21.986A17.864,17.864,0,0,1,555.2,392.49V500.9Z"/>
</svg>
