<svg id="工程" xmlns="http://www.w3.org/2000/svg" width="800" height="800" viewBox="0 0 800 800">
<defs>
    <style>
      .cls-1 {
        fill: none;
        stroke: #434343;
        stroke-linecap: round;
        stroke-linejoin: round;
        stroke-width: 40px;
        fill-rule: evenodd;
      }
    </style>
  </defs>
  <path id="矩形_8" data-name="矩形 8" class="cls-1" d="M216.879,252.263H721.121a40,40,0,0,1,40,40V684.737a40,40,0,0,1-40,40H216.879a40,40,0,0,1-40-40V292.263A40,40,0,0,1,216.879,252.263Z"/>
  <path id="圆角矩形_20_拷贝_3" data-name="圆角矩形 20 拷贝 3" class="cls-1" d="M649.046,229.522V173.678a39.038,39.038,0,0,0-39.068-39.008s-178.958.975-299.12,0.975c-14.3,0,2.461-64.362-10.744-64.362-73.721,0-161.152.975-161.152,0.975l-23.44,67.288s-74.784,11.543-74.228,55.586c1.374,108.824,1.7,315.96,1.7,315.96"/>
  <path id="圆角矩形_20_拷贝_4" data-name="圆角矩形 20 拷贝 4" class="cls-1" d="M43.986,515.015a39.013,39.013,0,0,0,39.049,38.977l87.98-.974"/>
</svg>
