<svg id="监视器" xmlns="http://www.w3.org/2000/svg" width="800" height="800" viewBox="0 0 800 800">
<defs>
    <style>
      .cls-1, .cls-2 {
        fill: none;
        stroke: #434343;
        stroke-linecap: round;
        stroke-linejoin: round;
        stroke-width: 40px;
      }

      .cls-1 {
        fill-rule: evenodd;
      }
    </style>
  </defs>
  <path id="矩形_4_拷贝_2" data-name="矩形 4 拷贝 2" class="cls-1" d="M640.968,763.787H152.375"/>
  <path id="圆角矩形_15_拷贝" data-name="圆角矩形 15 拷贝" class="cls-1" d="M349.816,567.342V757.693"/>
  <path id="圆角矩形_15_拷贝_2" data-name="圆角矩形 15 拷贝 2" class="cls-1" d="M444.49,567.342V757.693"/>
  <path id="圆角矩形_16" data-name="圆角矩形 16" class="cls-1" d="M71,37.24H727a40,40,0,0,1,40,40V517.76a40,40,0,0,1-40,40H71a40,40,0,0,1-40-40V77.24A40,40,0,0,1,71,37.24Z"/>
  <path id="形状_20" data-name="形状 20" class="cls-1" d="M147.107,445.9L269.822,255.378l81.043,99.515L406.437,234.55,487.48,358.364l114.375-132.17"/>
  <circle id="椭圆_34" data-name="椭圆 34" class="cls-2" cx="619.625" cy="192.375" r="38.281"/>
</svg>
