<svg id="粘贴-new" xmlns="http://www.w3.org/2000/svg" width="800" height="800" viewBox="0 0 800 800">
<defs>
    <style>
      .cls-1, .cls-2, .cls-3 {
        fill: none;
        stroke: #434343;
        stroke-linecap: round;
        stroke-linejoin: round;
        fill-rule: evenodd;
      }

      .cls-1, .cls-3 {
        stroke-width: 30px;
      }

      .cls-2 {
        stroke-width: 40px;
      }

      .cls-3 {
        stroke-dasharray: 48 60;
      }
    </style>
  </defs>
  <path id="矩形_32" data-name="矩形 32" class="cls-1" d="M559.457,294.707v430.93a30.793,30.793,0,0,1-30.778,30.809H103.332a30.793,30.793,0,0,1-30.778-30.809V219.34a30.794,30.794,0,0,1,30.778-30.809H374.965"/>
  <path id="矩形_20_" data-name="矩形 20 " class="cls-2" d="M451.137,437.858H175.53m274.684,101.2H176.01M451.137,639.982h-274.2"/>
  <path id="矩形_32-2" data-name="矩形 32" class="cls-1" d="M383.526,189.681c22,56.7,41.823,113.018,41.823,113.018a30.769,30.769,0,0,0,39.833,17.565s48.359-16.62,92.309-33.706C560.494,285.391,382.211,186.291,383.526,189.681Z"/>
  <path id="矩形_35" data-name="矩形 35" class="cls-3" d="M168,176.048V54.568a20.556,20.556,0,0,1,20.555-20.557H703.466a20.556,20.556,0,0,1,20.555,20.557V665.436a20.556,20.556,0,0,1-20.555,20.557H577.237"/>
</svg>
