<?xml version="1.0" standalone="no"?><!DOCTYPE svg PUBLIC "-//W3C//DTD SVG 1.1//EN" "http://www.w3.org/Graphics/SVG/1.1/DTD/svg11.dtd"><svg t="1745997337333" class="icon" viewBox="0 0 1024 1024" version="1.1" xmlns="http://www.w3.org/2000/svg" p-id="6243" xmlns:xlink="http://www.w3.org/1999/xlink" width="200" height="200"><path d="M213.341659 85.341659h597.316682a128 128 0 0 1 128 128v290.141658a384 384 0 0 1-227.827512 349.858342l-181.322927 80.221658c-11.139122 4.995122-23.876683 4.995122-34.990829 0l-181.322927-80.221658a384 384 0 0 1-227.852487-349.858342V213.341659a128 128 0 0 1 128-128zM675.84 776.541659a298.658341 298.658341 0 0 0 177.501659-273.058342V213.341659c0-23.552-19.106341-42.658341-42.683318-42.658342H213.341659c-23.576976 0-42.683317 19.106341-42.683318 42.658342v290.141658a298.658341 298.658341 0 0 0 177.501659 273.058342l163.84 72.953756 163.84-72.953756z" fill="#395289" p-id="6244"></path><path d="M602.51161 512.22478h-205.299512c14.485854-10.489756 26.973659-21.479024 37.962926-33.467317h129.373659c9.990244 11.48878 22.478049 22.478049 37.962927 33.467317z m-0.999025-33.467317h111.39122v-28.971707h-137.365854v-29.970732h64.936586v-26.474146h-64.936586v-29.970732h74.427317v-27.47317h-74.427317v-27.972683h92.909269v50.450731h34.965853v-80.920975h-181.822439c-5.994146-12.987317-12.487805-23.976585-18.481951-33.966829l-37.962927 6.493658c6.493659 7.992195 12.987317 17.482927 18.981464 27.473171h-186.318049v80.920975h34.965853v-50.450731h92.409756v27.972683h-73.927804v27.47317h73.927804v29.970732h-63.93756v26.474146h63.93756v29.970732h-135.867317v28.971707h108.394147c-26.973659 20.979512-67.933659 38.961951-121.880976 53.447805l18.481951 29.970732c27.473171-9.990244 51.949268-20.48 73.927805-31.96878v98.903414h34.965854v-87.914146h199.804878v87.914146h34.965854v-95.906341c20.48 9.990244 44.456585 19.480976 71.430244 27.972683l14.485853-30.470244c-53.947317-12.987317-94.907317-29.970732-122.380488-51.949269z m-60.940487-170.83317v27.972683h-79.921952v-27.972683h79.921952z m-79.921952 141.861463v-29.970732h79.921952v29.970732h-79.921952z m79.921952-56.444878h-79.921952v-29.970732h79.921952v29.970732z m-7.492683 229.276098l-17.982439 25.974634c51.449756 14.985366 101.900488 35.964878 150.852683 61.939512l17.982439-28.472195c-45.45561-22.977561-95.906341-42.958049-150.852683-59.441951z m-51.949269-65.436098c-2.997073 41.959024-14.485854 71.430244-34.466341 88.913171-21.978537 18.481951-66.435122 29.47122-134.368781 32.967805l13.48683 30.470244c77.923902-5.994146 127.875122-20.48 149.853658-42.958049 19.980488-17.982439 32.967805-53.447805 38.961951-106.396098l-33.467317-2.997073z" fill="#395289" p-id="6245"></path></svg>