<svg xmlns="http://www.w3.org/2000/svg" width="800" height="800" viewBox="0 0 800 800">
<defs>
    <style>
      .cls-1 {
        fill: #434343;
        stroke: #434343;
        stroke-linecap: round;
        stroke-linejoin: round;
        stroke-width: 40px;
        fill-rule: evenodd;
      }
    </style>
  </defs>
  <path id="暂停运行" class="cls-1" d="M401,53.094c191.591,0,346.906,155.315,346.906,346.906S592.591,746.906,401,746.906,54.094,591.591,54.094,400,209.409,53.094,401,53.094ZM283,196h35.18a40,40,0,0,1,40,40V572.455a40,40,0,0,1-40,40H283a40,40,0,0,1-40-40V236A40,40,0,0,1,283,196Zm204.82,0.545H523a40,40,0,0,1,40,40V573a40,40,0,0,1-40,40H487.82a40,40,0,0,1-40-40V236.545A40,40,0,0,1,487.82,196.545Z"/>
</svg>
