<svg id="帮助信息" xmlns="http://www.w3.org/2000/svg" width="800" height="800" viewBox="0 0 800 800">
<defs>
    <style>
      .cls-1 {
        fill: #434343;
        fill-rule: evenodd;
      }
    </style>
  </defs>
  <path id="形状_27" data-name="形状 27" class="cls-1" d="M398,33c203.241,0,368,164.759,368,368S601.241,769,398,769,30,604.241,30,401,194.759,33,398,33Zm58.491,43a61.157,61.157,0,1,1-61.509,61.156A61.333,61.333,0,0,1,456.491,76ZM266.843,374.647c-13.273-21.73,48.48-64.889,79.07-86.865,42.2-30.316,90.428-26.763,101.662,0s-20.081,127.15-20.081,127.15L376.035,597.473s-19.914,46.791-3.765,56.651c16.471,10.057,84.758-54.484,104.172-49.1,25.2,18.939-67.7,93.476-97.9,108.266-23.872,11.268-54.9,21.833-81.58,0s-8.785-95.677-8.785-95.677S326.3,487.059,339.638,453.958s47.57-105.511,25.1-119.6C344.73,321.818,280.271,396.629,266.843,374.647Z"/>
</svg>
