<svg id="上传工程" xmlns="http://www.w3.org/2000/svg" width="800" height="800" viewBox="0 0 800 800">
<defs>
    <style>
      .cls-1 {
        fill: #434343;
      }

      .cls-1, .cls-2 {
        stroke: #434343;
        stroke-linecap: round;
        stroke-linejoin: round;
        stroke-width: 40px;
        fill-rule: evenodd;
      }

      .cls-2 {
        fill: none;
      }
    </style>
  </defs>
  <path id="形状_5_拷贝" data-name="形状 5 拷贝" class="cls-1" d="M589.08,764.879V461.137h98.812L543.272,278.125,401.119,461.137H496.3V764.879H589.08Z"/>
  <path id="矩形_8_拷贝" data-name="矩形 8 拷贝" class="cls-2" d="M399.106,649.506H128.558a39.217,39.217,0,0,1-39.236-39.2V192.414a39.217,39.217,0,0,1,39.236-39.2H727.273a39.217,39.217,0,0,1,39.236,39.2V610.307a39.217,39.217,0,0,1-39.236,39.2H682.324"/>
  <path id="圆角矩形_20_拷贝_2" data-name="圆角矩形 20 拷贝 2" class="cls-2" d="M90.182,539.844c-20.872,0-52.909-16.886-52.909-37.716,0,0-.313-240.544-1.641-345.767-0.538-42.585,71.805-53.746,71.805-53.746l22.675-65.06s84.578-.943,155.893-0.943c12.774,0-3.44,62.232,10.393,62.232,116.241,0,353.486-.943,353.486-0.943a37.754,37.754,0,0,1,37.792,37.716V151.9"/>
</svg>
