<svg id="label" xmlns="http://www.w3.org/2000/svg" width="800" height="800" viewBox="0 0 800 800">
<defs>
    <style>
      .cls-1, .cls-2 {
        fill: none;
        stroke: #434343;
        stroke-linecap: round;
        stroke-linejoin: round;
        fill-rule: evenodd;
      }

      .cls-1 {
        stroke-width: 30px;
      }

      .cls-2 {
        stroke-width: 20px;
      }
    </style>
  </defs>
  <path id="圆角矩形_7" data-name="圆角矩形 7" class="cls-1" d="M450,342.661h86.971V429.61H450V342.661ZM263.467,470.8h86.97v86.949h-86.97V470.8ZM208.538,387.28H446.9m92.654,0H589.5M208.538,514.271h47.523m98.186,0H589.5"/>
  <path id="圆角矩形_7-2" data-name="圆角矩形 7" class="cls-1" d="M182.165,275.161h432.67a40,40,0,0,1,40,40V605.839a40,40,0,0,1-40,40H182.165a40,40,0,0,1-40-40V315.161A40,40,0,0,1,182.165,275.161Z"/>
  <path id="矩形_1" data-name="矩形 1" class="cls-1" d="M47.4,29H753.6a10,10,0,0,1,10,10V757a10,10,0,0,1-10,10H47.4a10,10,0,0,1-10-10V39A10,10,0,0,1,47.4,29Z"/>
  <path id="矩形_1-2" data-name="矩形 1" class="cls-1" d="M49.6,151H751.4"/>
  <path id="矩形_2" data-name="矩形 2" class="cls-2" d="M512.626,109.982L494.793,92.253a5.836,5.836,0,0,1,0-8.288L512.46,66.4"/>
  <path id="矩形_2-2" data-name="矩形 2" class="cls-2" d="M650.427,109.561l17.782-17.714a5.839,5.839,0,0,0,0-8.281L650.593,66.017"/>
  <path id="矩形_1-3" data-name="矩形 1" class="cls-2" d="M570.086,107.926l31.82-45.85"/>
</svg>
