<svg id="任务列表" xmlns="http://www.w3.org/2000/svg" width="800" height="800" viewBox="0 0 800 800">
<defs>
    <style>
      .cls-1 {
        fill: none;
        stroke: #434343;
        stroke-linecap: round;
        stroke-linejoin: round;
        stroke-width: 40px;
        fill-rule: evenodd;
      }
    </style>
  </defs>
  <path id="圆角矩形_33" data-name="圆角矩形 33" class="cls-1" d="M356.5,453.047L42.887,265.339c-18.988-11.365-15.72-29.53,6.891-40.577L363.448,71.516c19.159-9.36,49.945-9.36,69.1,0L746.221,224.762c22.611,11.047,25.879,29.212,6.892,40.577L439.5,453.047C416.692,466.7,379.308,466.7,356.5,453.047Z"/>
  <path id="圆角矩形_33_拷贝_2" data-name="圆角矩形 33 拷贝 2" class="cls-1" d="M746.221,368.686c22.611,11.047,25.879,29.213,6.892,40.578L439.5,596.972c-22.808,13.652-60.192,13.652-83,0L42.887,409.264C23.9,397.9,27.168,379.733,49.779,368.686"/>
  <path id="圆角矩形_33_拷贝_3" data-name="圆角矩形 33 拷贝 3" class="cls-1" d="M746.221,510.993c22.611,11.047,25.879,29.212,6.892,40.577L439.5,739.279c-22.808,13.651-60.192,13.651-83,0L42.887,551.57c-18.988-11.365-15.72-29.53,6.891-40.577"/>
</svg>
