<svg id="编程" xmlns="http://www.w3.org/2000/svg" width="800" height="800" viewBox="0 0 800 800">
<defs>
    <style>
      .cls-1, .cls-2 {
        fill: none;
        stroke: #333;
        stroke-linecap: round;
        stroke-linejoin: round;
        stroke-width: 30px;
      }

      .cls-1 {
        fill-rule: evenodd;
      }
    </style>
  </defs>
  <path id="形状_47" data-name="形状 47" class="cls-1" d="M42,228H766.942"/>
  <circle id="椭圆_53" data-name="椭圆 53" class="cls-2" cx="124" cy="141" r="27"/>
  <circle id="椭圆_53-2" data-name="椭圆 53" class="cls-2" cx="245" cy="141" r="27"/>
  <circle id="椭圆_53-3" data-name="椭圆 53" class="cls-2" cx="363" cy="141" r="27"/>
  <path id="矩形_66" data-name="矩形 66" class="cls-1" d="M72,51H731a40,40,0,0,1,40,40V712a40,40,0,0,1-40,40H72a40,40,0,0,1-40-40V91A40,40,0,0,1,72,51Z"/>
  <path id="矩形_67" data-name="矩形 67" class="cls-1" d="M244.47,599.775L108.919,479.987,244.47,360.2"/>
  <path id="形状_48" data-name="形状 48" class="cls-1" d="M480,307L337,657"/>
  <path id="矩形_67-2" data-name="矩形 67" class="cls-1" d="M561.838,601.651L697.083,481.987,561.838,362.323"/>
</svg>
